<svg xmlns="http://www.w3.org/2000/svg" viewBox="147.00390625 -549.9921875 425.9921875 549.9921875" width="100%" height="100%">
  <g id="glyph-u1F512" transform="scale(1, -1)">
    <path d="M315 219.99609375C315 194.99609375 335 174.99609375 360 174.99609375C385 174.99609375 405 194.99609375 405 219.99609375C405 244.99609375 385 264.99609375 360 264.99609375C335 264.99609375 315 244.99609375 315 219.99609375ZM360 219.99609375 317.25390625 83.99609375H402.74609375ZM185.9990234375 345.9921875C195.4072265625 435.7353515625 269.8291015625 512.0 360.0 512.0C450.17578125 512.0 524.5927734375 435.7294921875 534.0009765625 345.9921875ZM147.00390625 326.99609375V18.99609375C147.00390625 8.498046875 155.501953125 0.0 166.0 0.0H554.0C564.498046875 0.0 572.99609375 8.498046875 572.99609375 18.99609375V326.99609375C572.99609375 444.9150390625 477.37890625 549.9921875 360.0 549.9921875C242.626953125 549.9921875 147.00390625 444.9208984375 147.00390625 326.99609375ZM184.99609375 308.0H535.00390625V37.9921875H184.99609375Z" />
  </g>
</svg>